<svg xml:space="preserve" viewBox="0 0 100 100" y="0" x="0" xmlns="http://www.w3.org/2000/svg" id="Layer_1" version="1.1" style="height: 100%; width: 100%; background: rgb(241, 242, 243) none repeat scroll 0% 0%;" width="200px" height="200px"><g style="transform-origin: 50% 50% 0px; transform: rotate(0deg) scale(0.8);" class="ldl-scale"><g class="ldl-ani"><g class="ldl-layer"><g class="ldl-ani" style="transform-origin: 50px 50px 0px; transform: matrix(1, 0, 0, 1, 0, 0); animation: 1.85185s linear -1.23457s infinite normal forwards running bounce-60f5a1aa-e72d-4ef0-b6ec-7382997e1b62;"><path fill="#323232" d="M50 78.902c-.499 0-.998-.2-1.365-.601l-31.21-25.24h-5.568c-1.612 0-2.455 1.916-1.365 3.104l38.144 32.803c.367.4.866.601 1.365.601s.998-.2 1.365-.601L89.51 56.165c1.089-1.188.247-3.104-1.365-3.104h-5.568l-31.21 25.24a1.85 1.85 0 0 1-1.367.601z" id="XMLID_787_" style="fill: rgb(94, 111, 163);"></path></g></g><g class="ldl-layer"><g class="ldl-ani" style="transform-origin: 50px 50px 0px; transform: matrix(1, 0, 0, 1, 0, 0); animation: 1.85185s linear -1.54321s infinite normal forwards running bounce-60f5a1aa-e72d-4ef0-b6ec-7382997e1b62;"><path fill="#999998" d="M50 57.569c-.499 0-.998-.2-1.365-.601l-31.21-25.24h-5.568c-1.612 0-2.455 1.916-1.365 3.104l38.144 32.803c.367.4.866.601 1.365.601s.998-.2 1.365-.601L89.51 34.832c1.089-1.188.247-3.104-1.365-3.104h-5.568l-31.21 25.24a1.85 1.85 0 0 1-1.367.601z" id="XMLID_786_" style="fill: rgb(104, 156, 197);"></path></g></g><g class="ldl-layer"><g class="ldl-ani" style="transform-origin: 50px 50px 0px; transform: matrix(1, 0, 0, 1, 0, 0); animation: 1.85185s linear -1.85185s infinite normal forwards running bounce-60f5a1aa-e72d-4ef0-b6ec-7382997e1b62;"><path fill="#cccccb" d="M50 36.21c-.499 0-.998-.2-1.365-.601l-31.21-25.24h-5.568c-1.612 0-2.455 1.916-1.365 3.104l38.144 32.803c.367.4.866.601 1.365.601s.998-.2 1.365-.601L89.51 13.473c1.089-1.188.247-3.104-1.365-3.104h-5.568l-31.21 25.24A1.85 1.85 0 0 1 50 36.21z" id="XMLID_785_" style="fill: rgb(147, 219, 233);"></path></g></g><metadata xmlns:d="https://loading.io/stock/">
<d:name>down</d:name>
<d:tags>south,download,bottom,direction,way,dart,chevron,down,arrow</d:tags>
<d:license>by</d:license>
<d:slug>lq510q</d:slug>
</metadata></g></g></svg>